HIERARCHY
ROOT hip
{
  OFFSET 0 0 0
  CHANNELS 6 Xposition Yposition Zposition Zrotation Yrotation Xrotation
  JOINT abdomen
  {
    OFFSET 0 20.6881 -0.73152
    CHANNELS 3 Zrotation Xrotation Yrotation
    JOINT chest
    {
      OFFSET 0 11.7043 -0.48768
      CHANNELS 3 Zrotation Xrotation Yrotation
      JOINT neck
      {
        OFFSET 0 22.1894 -2.19456
        CHANNELS 3 Zrotation Xrotation Yrotation
        JOINT head
        {
          OFFSET -0.24384 7.07133 1.2192
          CHANNELS 3 Zrotation Xrotation Yrotation
          JOINT leftEye
          {
            OFFSET 4.14528 8.04674 8.04672
            CHANNELS 3 Zrotation Xrotation Yrotation
            End Site
            {
              OFFSET 1 0 0
            }
          }
          JOINT rightEye
          {
            OFFSET -3.6576 8.04674 8.04672
            CHANNELS 3 Zrotation Xrotation Yrotation
            End Site
            {
              OFFSET 1 0 0
            }
          }
        }
      }
      JOINT rCollar
      {
        OFFSET -2.68224 19.2634 -4.8768
        CHANNELS 3 Zrotation Xrotation Yrotation
        JOINT rShldr
        {
          OFFSET -8.77824 -1.95073 1.46304
          CHANNELS 3 Zrotation Xrotation Yrotation
          JOINT rForeArm
          {
            OFFSET -28.1742 -1.7115 0.48768
            CHANNELS 3 Zrotation Xrotation Yrotation
            JOINT rHand
            {
              OFFSET -22.5879 0.773209 7.07136
              CHANNELS 3 Zrotation Xrotation Yrotation
              JOINT rThumb1
              {
                OFFSET -1.2192 -0.487915 3.41376
                CHANNELS 3 Zrotation Xrotation Yrotation
                JOINT rThumb2
                {
                  OFFSET -3.37035 -0.52449 3.41376
                  CHANNELS 3 Zrotation Xrotation Yrotation
                  End Site
                  {
                    OFFSET -1.78271 -1.18214 1.43049
                  }
                }
              }
              JOINT rIndex1
              {
                OFFSET -7.75947 0.938293 5.60832
                CHANNELS 3 Zrotation Xrotation Yrotation
                JOINT rIndex2
                {
                  OFFSET -2.54057 -0.884171 1.56538
                  CHANNELS 3 Zrotation Xrotation Yrotation
                  End Site
                  {
                    OFFSET -1.62519 -0.234802 1.16502
                  }
                }
              }
              JOINT rMid1
              {
                OFFSET -8.24714 1.18213 3.41376
                CHANNELS 3 Zrotation Xrotation Yrotation
                JOINT rMid2
                {
                  OFFSET -3.10165 -0.590103 1.0647
                  CHANNELS 3 Zrotation Xrotation Yrotation
                  End Site
                  {
                    OFFSET -2.48547 -0.328903 0.83742
                  }
                }
              }
              JOINT rRing1
              {
                OFFSET -8.82822 0.546677 1.51678
                CHANNELS 3 Zrotation Xrotation Yrotation
                JOINT rRing2
                {
                  OFFSET -2.60934 -0.819778 -0.0198488
                  CHANNELS 3 Zrotation Xrotation Yrotation
                  End Site
                  {
                    OFFSET -2.33842 -0.294052 0.168128
                  }
                }
              }
              JOINT rPinky1
              {
                OFFSET -8.27202 -0.0477905 -0.4584
                CHANNELS 3 Zrotation Xrotation Yrotation
                JOINT rPinky2
                {
                  OFFSET -1.82734 -0.647385 -0.700984
                  CHANNELS 3 Zrotation Xrotation Yrotation
                  End Site
                  {
                    OFFSET -1.69225 -0.51767 -0.607171
                  }
                }
              }
            }
          }
        }
      }
      JOINT lCollar
      {
        OFFSET 2.68224 19.2634 -4.8768
        CHANNELS 3 Zrotation Xrotation Yrotation
        JOINT lShldr
        {
          OFFSET 8.77824 -1.95073 1.46304
          CHANNELS 3 Zrotation Xrotation Yrotation
          JOINT lForeArm
          {
            OFFSET 28.1742 -1.7115 0.48768
            CHANNELS 3 Zrotation Xrotation Yrotation
            JOINT lHand
            {
              OFFSET 22.5879 0.773209 7.07136
              CHANNELS 3 Zrotation Xrotation Yrotation
              JOINT lThumb1
              {
                OFFSET 1.2192 -0.487915 3.41376
                CHANNELS 3 Zrotation Xrotation Yrotation
                JOINT lThumb2
                {
                  OFFSET 3.37035 -0.52449 3.41376
                  CHANNELS 3 Zrotation Xrotation Yrotation
                  End Site
                  {
                    OFFSET 1.78271 -1.18214 1.43049
                  }
                }
              }
              JOINT lIndex1
              {
                OFFSET 7.75947 0.938293 5.60832
                CHANNELS 3 Zrotation Xrotation Yrotation
                JOINT lIndex2
                {
                  OFFSET 2.54057 -0.884171 1.56538
                  CHANNELS 3 Zrotation Xrotation Yrotation
                  End Site
                  {
                    OFFSET 1.62519 -0.234802 1.16502
                  }
                }
              }
              JOINT lMid1
              {
                OFFSET 8.24714 1.18213 3.41376
                CHANNELS 3 Zrotation Xrotation Yrotation
                JOINT lMid2
                {
                  OFFSET 3.10165 -0.590103 1.0647
                  CHANNELS 3 Zrotation Xrotation Yrotation
                  End Site
                  {
                    OFFSET 2.48547 -0.328903 0.83742
                  }
                }
              }
              JOINT lRing1
              {
                OFFSET 8.82822 0.546677 1.51678
                CHANNELS 3 Zrotation Xrotation Yrotation
                JOINT lRing2
                {
                  OFFSET 2.60934 -0.819778 -0.0198488
                  CHANNELS 3 Zrotation Xrotation Yrotation
                  End Site
                  {
                    OFFSET 2.33842 -0.294052 0.168128
                  }
                }
              }
              JOINT lPinky1
              {
                OFFSET 8.27202 -0.0477905 -0.4584
                CHANNELS 3 Zrotation Xrotation Yrotation
                JOINT lPinky2
                {
                  OFFSET 1.82734 -0.647385 -0.700984
                  CHANNELS 3 Zrotation Xrotation Yrotation
                  End Site
                  {
                    OFFSET 1.69225 -0.51767 -0.607171
                  }
                }
              }
            }
          }
        }
      }
    }
  }
  JOINT rButtock
  {
    OFFSET -8.77824 4.35084 1.2192
    CHANNELS 3 Zrotation Xrotation Yrotation
    JOINT rThigh
    {
      OFFSET 0 -1.70687 -2.19456
      CHANNELS 3 Zrotation Xrotation Yrotation
      JOINT rShin
      {
        OFFSET 0 -36.8199 0.73152
        CHANNELS 3 Zrotation Xrotation Yrotation
        JOINT rFoot
        {
          OFFSET 0.73152 -45.1104 -5.12064
          CHANNELS 3 Zrotation Xrotation Yrotation
          End Site
          {
            OFFSET -1.1221 -3.69964 12.103
          }
        }
      }
    }
  }
  JOINT lButtock
  {
    OFFSET 8.77824 4.35084 1.2192
    CHANNELS 3 Zrotation Xrotation Yrotation
    JOINT lThigh
    {
      OFFSET 0 -1.70687 -2.19456
      CHANNELS 3 Zrotation Xrotation Yrotation
      JOINT lShin
      {
        OFFSET 0 -36.8199 0.73152
        CHANNELS 3 Zrotation Xrotation Yrotation
        JOINT lFoot
        {
          OFFSET -0.73152 -45.1104 -5.12064
          CHANNELS 3 Zrotation Xrotation Yrotation
          End Site
          {
            OFFSET 1.1221 -3.69964 12.103
          }
        }
      }
    }
  }
}
MOTION
Frames:	6
Frame Time:	0.00833333
-47.8355 84.0843 3.99223 0.0 0.0 0.0 -1.54442 -0.0028563 -0.0420386 -0.425284 0.00108755 -0.0736512 1.95827e-14 -1.59028e-15 4.96963e-17 5.89459e-14 3.18055e-15 1.70831e-16 -0.0 0.0 0.0 -0.0 0.0 0.0 9.88864e-15 1.86361e-17 2.48481e-16 2.08753e-13 2.98177e-16 1.98785e-15 3.5498e-12 -1.0476e-12 -2.22639e-14 4.06069e-11 1.14214e-12 2.13097e-13 9.57792e-11 2.05032e-13 4.45278e-13 1.65403e-10 3.49861e-13 7.60153e-13 9.57844e-11 2.07531e-13 4.35736e-13 7.73091 5.47488 0.417314 9.57777e-11 2.04748e-13 4.42097e-13 2.90554 0.965183 0.102902 9.57808e-11 2.04848e-13 4.41302e-13 10.2786 0.731801 0.0259123 9.57735e-11 2.06338e-13 4.54819e-13 2.22167 -0.733487 -0.20892 9.79167e-15 2.05773e-17 -1.49089e-16 2.03648e-13 1.61513e-16 7.95139e-16 3.54672e-12 1.07483e-12 -2.54444e-14 4.05715e-11 -9.83562e-13 2.48083e-13 9.57082e-11 2.01758e-13 4.35736e-13 1.65285e-10 3.49861e-13 7.61743e-13 9.57033e-11 2.03556e-13 4.51639e-13 -7.73091 5.47488 -0.417314 9.57097e-11 2.0117e-13 4.35736e-13 -2.90554 0.965183 -0.102902 9.57014e-11 2.01568e-13 4.38121e-13 -10.2786 0.731801 -0.0259123 9.572e-11 2.05146e-13 4.26194e-13 -2.22167 -0.733487 0.20892 -2.03217e-16 0.0 -3.88251e-19 -0.637399 -1.92332 -0.00649017 -0.00940858 -2.07854 -0.0777889 -0.53472 3.99727 0.143647 2.03217e-16 0.0 3.88251e-19 -1.72013 -6.54829 0.158848 -0.00223192 6.29924 -0.0687155 0.565585 0.244565 -0.0693638
-53.9903 83.3131 -1.11985 -160.869 88.6946 -155.958 -2.06221 -1.27408 -0.320546 -0.00771444 1.01593 -0.15396 0.619546 1.71186 0.0753805 -0.575878 -1.53803 0.141658 -0.0 0.0 0.0 -0.0 0.0 0.0 6.21136e-15 4.25428e-13 6.03808e-15 22.2601 4.71037 0.69905 -3.00144 -1.1873 4.86223 0.00457368 1.50636 0.211445 -5.75067e-11 -1.12869e-10 -2.43334e-10 -1.01148e-10 -1.96628e-10 -4.19615e-10 -5.75014e-11 -1.12867e-10 -2.43342e-10 7.73091 5.47488 0.417314 -5.75068e-11 -1.12869e-10 -2.43337e-10 2.90554 0.965183 0.102902 -5.75023e-11 -1.1287e-10 -2.43336e-10 10.2786 0.731801 0.0259123 -5.75128e-11 -1.12868e-10 -2.43325e-10 2.22167 -0.733487 -0.20892 6.16118e-15 4.2974e-13 5.70302e-15 -21.341 1.79762 -2.72161 2.34466 -0.850678 -3.8622 -0.0176655 2.95364 -0.413127 1.48968e-11 4.08194e-11 1.63976e-10 2.76355e-11 7.01349e-11 2.83583e-10 1.48911e-11 4.08203e-11 1.63993e-10 -7.73091 5.47488 -0.417314 1.48982e-11 4.08188e-11 1.63977e-10 -2.90554 0.965183 -0.102902 1.48895e-11 4.08191e-11 1.63979e-10 -10.2786 0.731801 -0.0259123 1.49059e-11 4.08227e-11 1.63972e-10 -2.22167 -0.733487 0.20892 -2.03217e-16 0.0 -3.88251e-19 -3.08591 -5.52478 1.04228 0.0743542 4.78456 0.203195 0.652227 0.313039 -3.82451 2.03217e-16 0.0 3.88251e-19 0.289778 -11.7092 0.270059 -0.0334727 12.1606 -0.208992 -0.358366 -2.68267 0.566641
-53.9939 83.3163 -1.14231 -169.508 88.6565 -164.6 -2.6293 -2.61891 -0.61892 0.440251 2.08979 -0.239964 1.26912 3.52375 0.15582 -1.176 -3.16735 0.292854 -0.0 0.0 0.0 -0.0 0.0 0.0 2.23269e-15 9.0999e-13 1.26725e-14 45.663 9.67647 1.46033 -5.95219 -2.41164 10.0026 -0.00274846 3.1144 0.437662 -2.26915e-10 -2.42831e-10 -5.15735e-10 -3.95745e-10 -4.22993e-10 -8.89328e-10 -2.26909e-10 -2.4283e-10 -5.15741e-10 7.73091 5.47488 0.417314 -2.26913e-10 -2.42832e-10 -5.15738e-10 2.90554 0.965183 0.102902 -2.26907e-10 -2.42833e-10 -5.15734e-10 10.2786 0.731801 0.0259123 -2.26921e-10 -2.42831e-10 -5.15726e-10 2.22167 -0.733487 -0.20892 2.23058e-15 9.19233e-13 1.24085e-14 -43.7253 3.64516 -5.59671 4.69627 -1.73576 -7.94347 0.0103133 6.0948 -0.856236 -8.21018e-11 8.45189e-11 3.46179e-10 -1.37786e-10 1.45222e-10 5.98727e-10 -8.21085e-11 8.45188e-11 3.46196e-10 -7.73091 5.47488 -0.417314 -8.21006e-11 8.45182e-11 3.4618e-10 -2.90554 0.965183 -0.102902 -8.21096e-11 8.45185e-11 3.46182e-10 -10.2786 0.731801 -0.0259123 -8.20955e-11 8.45222e-11 3.46179e-10 -2.22167 -0.733487 0.20892 -2.03217e-16 0.0 -3.88251e-19 -5.53548 -9.33038 2.17129 0.0885046 12.0431 0.510116 1.35346 -3.54851 -8.03571 2.03217e-16 0.0 3.88251e-19 2.43065 -17.1635 0.401156 -0.0334331 18.3527 -0.366221 -1.26397 -5.7729 1.23339
-53.9702 83.3113 -1.12698 -169.487 88.8699 -164.506 -3.13494 -3.81614 -0.879272 0.835972 3.04559 -0.314949 1.84508 5.13554 0.226952 -1.70475 -4.61398 0.426203 -0.0 0.0 0.0 -0.0 0.0 0.0 -1.1432e-15 1.27625e-12 1.76173e-14 66.4263 14.1226 2.15524 -8.40612 -3.45943 14.6108 -0.0197213 4.51884 0.636092 -3.64079e-10 -3.39017e-10 -7.30894e-10 -6.34248e-10 -5.90584e-10 -1.26037e-09 -3.64073e-10 -3.39017e-10 -7.30898e-10 7.73091 5.47488 0.417314 -3.64076e-10 -3.39018e-10 -7.30896e-10 2.90554 0.965183 0.102902 -3.64069e-10 -3.3902e-10 -7.3089e-10 10.2786 0.731801 0.0259123 -3.64085e-10 -3.39018e-10 -7.30884e-10 2.22167 -0.733487 -0.20892 -1.09982e-15 1.28918e-12 1.74072e-14 -63.5108 5.3441 -8.19668 6.69225 -2.5057 -11.5966 0.0760882 8.85907 -1.25268 -1.46726e-10 1.22055e-10 4.91058e-10 -2.47663e-10 2.09705e-10 8.49225e-10 -1.46733e-10 1.22054e-10 4.91075e-10 -7.73091 5.47488 -0.417314 -1.46725e-10 1.22054e-10 4.91059e-10 -2.90554 0.965183 -0.102902 -1.46734e-10 1.22054e-10 4.91062e-10 -10.2786 0.731801 -0.0259123 -1.46722e-10 1.22058e-10 4.91063e-10 -2.22167 -0.733487 0.20892 -2.03217e-16 0.0 -3.88251e-19 -7.57876 -12.7112 3.20388 0.0316559 18.5092 0.804556 1.49876 -6.90458 -11.8471 2.03217e-16 0.0 3.88251e-19 4.37471 -22.0305 0.515322 -0.00204752 23.8826 -0.520908 -2.00955 -8.53311 1.85735
-53.9376 83.3051 -1.12568 -166.174 88.9177 -161.2 -3.45991 -4.64478 -1.0429 1.09486 3.70628 -0.362035 2.24678 6.24713 0.274027 -2.0716 -5.60398 0.513727 -0.0 0.0 0.0 -0.0 0.0 0.0 -3.01216e-15 1.34675e-12 1.83379e-14 80.847 17.2771 2.62843 -10.0343 -4.1623 17.8659 -0.0360919 5.41453 0.763258 -4.20632e-10 -3.50761e-10 -8.02947e-10 -7.32517e-10 -6.11239e-10 -1.38471e-09 -4.20626e-10 -3.50762e-10 -8.0295e-10 7.73091 5.47488 0.417314 -4.20629e-10 -3.50763e-10 -8.02947e-10 2.90554 0.965183 0.102902 -4.2062e-10 -3.50764e-10 -8.02942e-10 10.2786 0.731801 0.0259123 -4.20638e-10 -3.50762e-10 -8.02937e-10 2.22167 -0.733487 -0.20892 -2.9297e-15 1.36026e-12 1.81391e-14 -77.139 6.71451 -10.082 8.03785 -3.03151 -14.1698 0.142051 10.683 -1.51921 -1.30414e-10 1.44181e-10 5.42628e-10 -2.18677e-10 2.47679e-10 9.38105e-10 -1.30421e-10 1.4418e-10 5.42644e-10 -7.73091 5.47488 -0.417314 -1.30413e-10 1.4418e-10 5.42628e-10 -2.90554 0.965183 -0.102902 -1.30422e-10 1.44181e-10 5.42632e-10 -10.2786 0.731801 -0.0259123 -1.30412e-10 1.44184e-10 5.42634e-10 -2.22167 -0.733487 0.20892 -2.03217e-16 0.0 -3.88251e-19 -8.89601 -15.0454 3.9372 -0.0510758 22.9958 1.02778 1.33375 -9.15616 -14.5491 2.03217e-16 0.0 3.88251e-19 5.77313 -25.43 0.565803 0.039699 27.7575 -0.642509 -2.48884 -10.4719 2.35709
-53.9286 83.3029 -1.12527 -159.161 88.8476 -154.248 -3.51267 -4.95682 -1.06026 1.15217 3.94767 -0.366909 2.41287 6.65963 0.288858 -2.22385 -5.9508 0.539611 -0.0 0.0 0.0 -0.0 0.0 0.0 -2.7497e-15 9.87471e-13 1.29536e-14 86.5183 18.6517 2.73941 -10.6931 -4.4538 19.2265 -0.0404418 5.56866 0.785263 -3.22299e-10 -2.10044e-10 -7.53839e-10 -5.62174e-10 -3.66813e-10 -1.30085e-09 -3.22292e-10 -2.10045e-10 -7.53842e-10 7.73091 5.47488 0.417314 -3.22298e-10 -2.10047e-10 -7.53832e-10 2.90554 0.965183 0.102902 -3.22286e-10 -2.10047e-10 -7.53833e-10 10.2786 0.731801 0.0259123 -3.22305e-10 -2.10046e-10 -7.53828e-10 2.22167 -0.733487 -0.20892 -2.63279e-15 9.96607e-13 1.27016e-14 -82.2779 7.70376 -10.9476 8.57979 -3.24752 -15.2307 0.16502 11.1587 -1.58985 -2.97536e-12 1.71248e-10 5.59841e-10 1.76373e-12 2.94269e-10 9.67186e-10 -2.98108e-12 1.71248e-10 5.59854e-10 -7.73091 5.47488 -0.417314 -2.97421e-12 1.71248e-10 5.59839e-10 -2.90554 0.965183 -0.102902 -2.98299e-12 1.71249e-10 5.59844e-10 -10.2786 0.731801 -0.0259123 -2.97425e-12 1.71252e-10 5.59845e-10 -2.22167 -0.733487 0.20892 -2.03217e-16 0.0 -3.88251e-19 -9.32415 -15.9245 4.21332 -0.0939964 24.7085 1.11821 1.21476 -9.9787 -15.6032 2.03217e-16 0.0 3.88251e-19 6.387 -26.7798 0.494885 0.0608533 29.321 -0.700779 -2.65435 -11.2699 2.7007
